<svg xmlns="http://www.w3.org/2000/svg" viewBox="0 0 30.706203 29.277506" height="29.278" width="30.706"><path d="M8.506 25.525l-6.56-3.75-.022-1.224c-.012-.674.01-3.116.048-5.428l.07-4.203-.27-1.16C1.623 9.122 1.231 7.43.9 6 .569 4.57.226 3.099.138 2.731c-.088-.368-.15-.677-.136-.687.013-.01 2.112 1.09 4.664 2.444 2.552 1.354 4.71 2.464 4.794 2.467.229.008 4.231-1.123 4.34-1.226.052-.049.803-1.358 1.67-2.909C16.339 1.269 17.075 0 17.107 0c.032 0 1.278.59 2.769 1.311l6.551 3.168c2.112 1.021 3.94 1.893 4.06 1.937.121.044.22.113.22.153 0 .04-.864 1.584-1.92 3.432l-1.92 3.358.078 4.66c.044 2.564.08 5.203.08 5.866l.002 1.204-.38.127c-.209.069-2.873 1.012-5.92 2.095-3.046 1.083-5.566 1.968-5.6 1.967-.033-.002-3.012-1.69-6.62-3.753zm12.4.487l4.88-1.739-.004-2.676c-.01-6.326-.032-7.517-.136-7.515-.055 0-2.296.82-4.98 1.822l-4.88 1.822-.02 5.017c-.02 4.742-.013 5.017.12 5.012.077-.003 2.336-.787 5.02-1.743zm-6.3-3.376l-.02-4.964-1.28-.662c-.704-.364-2.63-1.356-4.28-2.206-1.65-.849-3.616-1.863-4.369-2.254-.753-.39-1.387-.71-1.409-.71-.038 0-.118 3.658-.16 7.391l-.022 1.832 5.72 3.267c3.146 1.797 5.747 3.268 5.78 3.269.034 0 .052-2.233.04-4.963zm5.82-7.891c2.42-.901 4.41-1.648 4.422-1.66.018-.018-9.892-5.558-10.076-5.632-.036-.014-.066.5-.066 1.143v1.17l.28.165c.16.094.28.228.28.314 0 .31.404 5.727.446 5.982.035.21.072.255.18.211.073-.03 2.114-.792 4.534-1.693zM14.5 15.86c-.057-.566-.354-4.634-.354-4.852 0-.165-.237-.314-1.86-1.17-1.023-.54-3.798-2.005-6.166-3.257C3.752 5.33 1.795 4.325 1.771 4.348c-.068.068 1.332 6.002 1.439 6.1.053.05.762.432 1.576.85 3.343 1.72 5.274 2.716 7.36 3.796 1.21.626 2.244 1.14 2.296 1.142.068.003.085-.11.058-.376zm13.118-6.176c.816-1.428 1.475-2.604 1.464-2.615a738.521 738.521 0 0 0-6.016-2.91 301.66 301.66 0 0 1-2.32-1.12c-2.307-1.122-3.176-1.53-3.203-1.502-.136.135-2.595 4.665-2.545 4.686.038.016 2.534 1.407 5.548 3.091 3.014 1.684 5.505 3.04 5.535 3.014.03-.026.722-1.216 1.537-2.644zM13.578 8.12c-.012-.614-.05-1-.1-1-.229 0-2.453.67-2.397.722.127.119 2.307 1.272 2.41 1.275.081.002.1-.217.086-.997z" fill="#b4b4b4"/></svg>