<svg xmlns="http://www.w3.org/2000/svg" width="556.924" height="556" viewBox="0 0 665.70752 664.60135"><path d="M666.871 227.27c.897-2.294 1.09-4.52.86-6.967-.056-.774.536-1.446.32-2.25-.125-.341-.449-.44-.594-.733-.122-.436.051-.844-.05-1.195-1.225-2.964-3.268-5.314-5.8-6.965-.28-.158-.49-.073-.73-.233-2.346-1.36-5.001-2.315-7.752-2.27l-635.778 7.577A15.143 15.143 0 0 0 3.158 224.72c-2.053 6.152.107 12.939 5.36 16.842l108.774 80.848 5.56 150.783c.062.989.654 1.721.91 2.658.076.551-.324 1.036-.114 1.586.247.913.972 1.607 1.453 2.426.344.685.623 1.342 1.195 1.989 1.611 2.05 3.448 3.754 5.796 4.75.538.228 1.025.396 1.607.567 2.766.828 5.533.52 8.156-.175.312-.099.645.159.996.057l127.677-42.521 79.116 69.164c5.941 5.042 14.81 4.958 20.483-.426l293.707-280.476c.646-.707.806-1.717 1.342-2.529.765-.983 1.21-1.852 1.695-2.994zm-461.81 129.684c-.336.068-.384.452-.712.544-2.645 1.11-5.139 2.63-6.844 5.061l-45.973 64.83-3.635-100.146 308.064-54.855zM469.39 239.16l-333.365 59.337-73.386-54.512zM177.16 443.674l35.338-49.888 31.553 27.577zm182.067 38.105l-119.51-104.515 353.847-119.283z" fill="#fff"/></svg>